<svg id="svg" version="1.1" width="1000" height="1000" xmlns="http://www.w3.org/2000/svg" xmlns:xlink="http://www.w3.org/1999/xlink" style="display: block;"><g id="svgg"><path id="path0" d="M173.000 37.780 C 123.606 46.503,84.482 83.359,72.413 132.534 C 64.685 164.022,70.444 199.930,87.688 227.787 C 93.400 237.015,103.729 249.099,111.844 256.049 C 112.968 257.012,114.976 258.741,116.306 259.890 C 119.067 262.277,124.610 266.326,125.800 266.827 C 126.240 267.012,128.220 268.157,130.200 269.372 C 156.387 285.439,189.360 291.015,220.024 284.561 C 222.761 283.985,225.914 283.356,227.031 283.162 C 239.151 281.063,260.098 270.341,274.200 259.018 C 293.659 243.393,312.000 215.102,316.352 193.999 C 317.632 187.789,318.800 181.965,318.800 181.789 C 318.800 181.680,311.753 181.638,303.139 181.695 L 287.478 181.800 286.527 185.400 C 279.321 212.682,262.817 233.187,237.200 246.686 C 230.958 249.975,219.680 253.670,211.307 255.168 C 187.452 259.438,162.846 254.368,142.800 241.054 C 99.512 212.303,86.807 155.773,113.855 112.262 C 115.475 109.655,116.800 107.440,116.800 107.338 C 116.800 105.730,131.058 90.799,136.831 86.361 C 147.078 78.484,162.307 71.342,174.200 68.837 C 176.400 68.374,178.605 67.903,179.100 67.790 L 180.000 67.585 180.000 52.192 L 180.000 36.800 179.100 36.831 C 178.605 36.848,175.860 37.275,173.000 37.780 M142.028 312.301 C 139.069 313.810,138.006 317.308,139.543 320.481 C 141.545 324.618,148.529 324.885,150.233 320.890 C 152.806 314.863,147.630 309.444,142.028 312.301 M73.800 316.794 C 63.891 317.973,58.347 326.620,62.022 335.163 C 63.642 338.927,67.442 341.316,75.362 343.546 C 82.754 345.628,84.552 346.948,83.843 349.770 C 82.910 353.489,71.704 352.074,65.654 347.473 C 64.299 346.443,63.058 345.602,62.896 345.605 C 62.519 345.612,57.748 354.692,58.007 354.909 C 70.309 365.202,92.466 364.041,96.164 352.909 C 99.245 343.633,94.556 337.506,81.750 334.075 C 75.496 332.400,73.600 331.256,73.600 329.159 C 73.600 325.301,81.107 325.515,89.206 329.603 C 90.510 330.261,91.813 330.800,92.101 330.800 C 92.783 330.800,96.974 321.805,96.585 321.175 C 94.797 318.283,81.986 315.820,73.800 316.794 M249.948 326.807 C 240.155 328.462,235.850 338.635,242.438 344.558 C 244.507 346.418,244.994 346.645,252.200 349.101 C 256.056 350.415,256.617 350.721,256.738 351.578 C 257.147 354.477,251.685 354.355,245.124 351.320 C 241.329 349.564,241.205 349.612,239.192 353.616 C 237.344 357.291,237.346 357.299,240.376 358.948 C 249.972 364.171,263.652 362.696,266.828 356.097 C 270.519 348.425,267.149 343.186,256.369 339.837 C 253.297 338.883,251.434 338.074,250.833 337.435 L 249.928 336.472 250.814 335.586 C 252.153 334.247,255.981 334.627,260.436 336.541 C 264.790 338.411,264.371 338.557,266.324 334.500 C 268.422 330.143,268.526 330.609,265.100 328.992 C 260.640 326.888,254.614 326.019,249.948 326.807 M113.200 327.344 C 96.752 331.822,96.203 356.190,112.436 361.242 C 120.143 363.641,129.689 361.147,133.334 355.783 C 134.981 353.360,135.094 353.500,128.664 350.031 L 126.329 348.771 124.817 350.137 C 119.632 354.821,112.800 351.822,112.800 344.862 C 112.800 337.103,119.119 333.477,124.371 338.222 C 126.447 340.097,126.088 340.193,132.300 336.104 C 134.836 334.436,134.821 334.667,132.555 332.077 C 128.628 327.588,120.029 325.485,113.200 327.344 M139.200 344.200 L 139.200 361.600 145.000 361.600 L 150.800 361.600 150.800 344.200 L 150.800 326.800 145.000 326.800 L 139.200 326.800 139.200 344.200 M169.580 327.325 C 153.290 331.892,153.284 356.568,169.573 361.361 C 176.492 363.397,186.122 361.208,190.379 356.633 L 191.358 355.581 188.789 352.989 C 185.669 349.841,185.173 349.652,183.273 350.888 C 178.549 353.962,173.935 353.709,170.859 350.207 C 168.887 347.960,168.704 348.000,180.900 347.994 C 194.373 347.987,193.385 348.364,193.087 343.339 C 192.643 335.863,189.777 331.087,184.073 328.317 C 180.982 326.816,173.279 326.289,169.580 327.325 M199.200 344.189 L 199.200 361.600 204.981 361.600 L 210.762 361.600 210.881 351.436 L 211.000 341.272 212.228 339.736 C 215.389 335.784,220.138 335.975,222.025 340.131 C 222.702 341.623,222.783 342.850,222.791 351.700 L 222.800 361.600 228.629 361.600 L 234.459 361.600 234.306 348.700 C 234.139 334.572,234.000 333.638,231.631 330.764 C 227.472 325.718,216.659 325.332,212.139 330.068 L 211.000 331.262 210.800 329.131 L 210.600 327.000 204.900 326.889 L 199.200 326.778 199.200 344.189 M179.121 335.881 C 180.588 336.976,181.551 338.397,181.845 339.900 L 182.100 341.200 175.650 341.200 C 168.596 341.200,168.560 341.186,169.764 338.880 C 171.678 335.216,176.263 333.747,179.121 335.881 " stroke="none" fill="#4c4c4c" fill-rule="evenodd"></path><path id="path1" d="M212.800 52.715 L 212.800 68.240 215.300 68.754 C 251.601 76.214,283.620 110.267,288.589 146.700 L 288.875 148.800 304.295 148.800 L 319.716 148.800 319.471 146.100 C 314.673 93.066,268.615 45.389,214.500 37.440 L 212.800 37.191 212.800 52.715 M183.400 87.221 C 165.478 89.052,151.706 95.726,144.237 106.200 C 129.426 126.972,138.380 152.973,164.049 163.728 C 170.172 166.293,173.833 167.324,197.800 173.233 C 218.497 178.336,224.166 181.620,225.180 189.092 C 228.119 210.747,187.826 219.164,169.938 200.632 C 167.284 197.883,162.800 187.937,162.800 184.801 C 162.800 183.382,160.138 183.174,152.400 183.990 C 150.530 184.187,147.740 184.458,146.200 184.592 C 136.713 185.421,131.928 185.939,131.705 186.162 C 131.376 186.490,133.433 196.728,134.405 199.600 C 144.123 228.328,172.993 240.518,215.800 233.967 C 246.153 229.321,263.524 205.024,255.751 178.085 C 250.372 159.440,238.582 152.209,197.600 142.422 C 178.336 137.821,171.168 134.508,168.556 129.000 C 164.079 119.557,175.045 111.930,193.200 111.860 C 210.000 111.794,217.523 116.622,220.688 129.499 C 221.376 132.298,221.441 132.397,222.600 132.388 C 223.260 132.383,229.290 132.118,236.000 131.800 C 242.710 131.482,249.346 131.216,250.747 131.211 L 253.293 131.200 253.025 128.500 C 250.720 105.310,236.265 91.758,209.593 87.781 C 204.574 87.033,188.588 86.691,183.400 87.221 M290.828 312.301 C 285.181 315.180,287.285 323.600,293.652 323.600 C 296.689 323.600,298.138 322.794,299.257 320.481 C 301.339 316.182,298.524 311.601,293.800 311.601 C 292.920 311.601,291.583 311.916,290.828 312.301 M288.277 327.056 C 288.125 327.208,288.000 335.043,288.000 344.467 L 288.000 361.600 293.804 361.600 L 299.608 361.600 299.504 344.300 L 299.400 327.000 293.977 326.889 C 290.995 326.828,288.430 326.903,288.277 327.056 M318.900 327.395 C 309.213 330.109,303.812 340.356,306.985 350.000 C 312.606 367.080,339.841 365.948,343.550 348.480 C 346.576 334.232,333.728 323.242,318.900 327.395 M327.743 336.550 C 330.693 337.783,332.719 341.844,332.272 345.625 C 331.091 355.594,317.868 354.667,317.910 344.618 C 317.937 338.297,322.656 334.425,327.743 336.550 M274.302 351.502 C 272.148 352.838,271.271 357.031,272.607 359.613 C 274.373 363.028,280.879 362.841,282.554 359.327 C 285.145 353.894,279.333 348.383,274.302 351.502 " stroke="none" fill="#d6de23" fill-rule="evenodd"></path></g></svg>